<?xml version="1.0" encoding="utf-8"?><!-- Uploaded to: SVG Repo, www.svgrepo.com, Generator: SVG Repo Mixer Tools -->
<svg fill="#000000" width="800px" height="800px" viewBox="0 0 24 24" id="headset-alt" data-name="Flat Line" xmlns="http://www.w3.org/2000/svg" class="icon flat-line"><path id="secondary" d="M4,14V13a3,3,0,0,1,3-3H8a1,1,0,0,1,1,1v5a1,1,0,0,1-1,1H7A3,3,0,0,1,4,14Zm16,0V13a3,3,0,0,0-3-3H16a1,1,0,0,0-1,1v5a1,1,0,0,0,1,1h1A3,3,0,0,0,20,14Z" style="fill: rgb(44, 169, 188); stroke-width: 2;"></path><path id="primary" d="M4,14l-.19-2A8.23,8.23,0,0,1,12,3h0a8.23,8.23,0,0,1,8.19,9L20,14" style="fill: none; stroke: rgb(0, 0, 0); stroke-linecap: round; stroke-linejoin: round; stroke-width: 2;"></path><path id="primary-2" data-name="primary" d="M17,17v1a1.89,1.89,0,0,1-1.75,2H12" style="fill: none; stroke: rgb(0, 0, 0); stroke-linecap: round; stroke-linejoin: round; stroke-width: 2;"></path><path id="primary-3" data-name="primary" d="M4,14V13a3,3,0,0,1,3-3H8a1,1,0,0,1,1,1v5a1,1,0,0,1-1,1H7A3,3,0,0,1,4,14Zm16,0V13a3,3,0,0,0-3-3H16a1,1,0,0,0-1,1v5a1,1,0,0,0,1,1h1A3,3,0,0,0,20,14Z" style="fill: none; stroke: rgb(0, 0, 0); stroke-linecap: round; stroke-linejoin: round; stroke-width: 2;"></path></svg>