<?xml version="1.0" encoding="iso-8859-1"?>
<!-- Uploaded to: SVG Repo, www.svgrepo.com, Generator: SVG Repo Mixer Tools -->
<svg height="800px" width="800px" version="1.1" id="Layer_1" xmlns="http://www.w3.org/2000/svg" xmlns:xlink="http://www.w3.org/1999/xlink" 
	 viewBox="0 0 512 512" xml:space="preserve">
<path style="fill:#CFDCE5;" d="M503.822,93.889v324.225c0,14.811-12.01,26.822-26.822,26.822H36.222
	c-14.811,0-26.821-12.01-26.821-26.822V93.889c0-14.823,12.011-26.822,26.821-26.822h440.78
	C491.812,67.067,503.822,79.065,503.822,93.889z"/>
<circle style="fill:#415E72;" cx="188.653" cy="255.993" r="147.676"/>
<g>
	<path style="fill:#FF6F52;" d="M307.086,254.349c0,34.567-35.563,57.709-67.165,43.695l-31.11-13.78
		c8.812-6.292,14.565-16.604,14.565-28.263c0-0.551-0.012-1.101-0.047-1.652H307.086z"/>
	<path style="fill:#FF6F52;" d="M190.285,290.673v83.769c-34.555,0-57.697-35.574-43.695-67.177l13.78-31.122
		c6.292,8.823,16.615,14.577,28.286,14.577C189.207,290.72,189.746,290.709,190.285,290.673z"/>
	<path style="fill:#FF6F52;" d="M168.502,227.727c-8.823,6.281-14.577,16.604-14.577,28.274c0,0.551,0.012,1.101,0.047,1.64h-0.012
		H70.203c0-34.567,35.563-57.709,67.165-43.707l31.122,13.78L168.502,227.727z"/>
	<path style="fill:#FF6F52;" d="M187.004,221.317v-83.769c34.555,0,57.697,35.563,43.695,67.165l-13.78,31.122
		c-6.292-8.823-16.604-14.565-28.263-14.565C188.106,221.27,187.555,221.282,187.004,221.317z"/>
	<path style="fill:#FF6F52;" d="M187.004,221.317c0.551-0.035,1.101-0.047,1.652-0.047c11.659,0,21.97,5.742,28.263,14.565
		c3.773,5.261,6.093,11.636,6.41,18.514c0.035,0.551,0.047,1.101,0.047,1.652c0,11.659-5.753,21.97-14.565,28.263h-0.012
		c-5.261,3.773-11.624,6.105-18.514,6.41c-0.539,0.035-1.078,0.047-1.629,0.047c-11.671,0-21.994-5.753-28.286-14.577
		c-3.761-5.261-6.081-11.624-6.398-18.502c-0.035-0.539-0.047-1.09-0.047-1.64c0-11.671,5.753-21.994,14.577-28.274
		C173.763,223.954,180.126,221.634,187.004,221.317z"/>
</g>
<path d="M83.731,151.088c-3.618-3.234-9.175-2.922-12.409,0.698C45.688,180.479,31.569,217.489,31.569,256
	c0,86.278,70.192,156.469,156.469,156.469s156.469-70.193,156.469-156.47S274.316,99.53,188.04,99.53
	c-32.841,0-64.277,10.064-90.908,29.104c-3.949,2.823-4.86,8.311-2.038,12.26c2.823,3.948,8.311,4.86,12.26,2.038
	c23.632-16.896,51.533-25.826,80.686-25.826c76.586,0,138.893,62.307,138.893,138.893S264.625,394.893,188.04,394.893
	S49.146,332.585,49.146,255.999c0-34.185,12.531-67.036,35.283-92.502C87.663,159.877,87.351,154.322,83.731,151.088z"/>
<path d="M476.392,58.276H35.608C15.973,58.276,0,74.249,0,93.884v324.232c0,19.635,15.973,35.608,35.608,35.608h381.854
	c4.853,0,8.788-3.935,8.788-8.788c0-4.853-3.935-8.788-8.788-8.788H35.608c-9.944,0-18.032-8.089-18.032-18.032V93.884
	c0-9.944,8.089-18.032,18.032-18.032h440.783c9.944,0,18.032,8.089,18.032,18.032v324.232c0,9.944-8.089,18.032-18.032,18.032
	H447.93c-4.853,0-8.788,3.935-8.788,8.788c0,4.853,3.935,8.788,8.788,8.788h28.462c19.635,0,35.609-15.973,35.609-35.608V93.884
	C512,74.249,496.027,58.276,476.392,58.276z"/>
<path d="M238.122,208.273c7.785-17.57,6.175-37.678-4.307-53.788c-10.481-16.108-28.209-25.725-47.421-25.725
	c-4.853,0-8.788,3.935-8.788,8.788v76.212c-3.669,0.907-7.157,2.274-10.396,4.047L140.318,205.9
	c-17.569-7.786-37.675-6.175-53.785,4.307c-16.11,10.483-25.728,28.215-25.728,47.434c0,4.853,3.935,8.788,8.788,8.788h76.206
	c0.906,3.67,2.273,7.158,4.046,10.397l-11.9,26.879c-7.786,17.572-6.175,37.684,4.311,53.798
	c10.481,16.109,28.209,25.727,47.419,25.727c4.853,0,8.788-3.935,8.788-8.788v-76.199c3.68-0.908,7.179-2.281,10.427-4.061
	l26.858,11.897c7.37,3.268,15.185,4.883,22.965,4.883c10.767,0,21.467-3.093,30.82-9.176c16.113-10.48,25.732-28.214,25.732-47.435
	c0-4.853-3.935-8.788-8.788-8.788h-76.197c-0.908-3.673-2.279-7.166-4.057-10.409L238.122,208.273z M162.102,255.999
	c0-14.301,11.636-25.937,25.937-25.937s25.937,11.636,25.937,25.937c0,14.302-11.636,25.937-25.937,25.937
	C173.737,281.937,162.102,270.301,162.102,255.999z M219.082,164.071c7.226,11.107,8.337,24.97,2.969,37.084l-8.645,19.525
	c-5.309-3.825-11.508-6.482-18.225-7.596V147.33C204.912,149.566,213.492,155.479,219.082,164.071z M96.119,224.94
	c11.106-7.226,24.967-8.337,37.08-2.969l19.53,8.648c-3.829,5.312-6.49,11.514-7.606,18.236h-65.75
	C81.609,239.116,87.524,230.532,96.119,224.94z M156.987,347.917c-7.23-11.111-8.342-24.977-2.973-37.093l8.641-19.516
	c5.31,3.828,11.51,6.489,18.23,7.606v65.745C171.156,362.422,162.579,356.51,156.987,347.917z M279.947,287.05
	c-11.104,7.224-24.964,8.331-37.078,2.957l-19.509-8.642c3.825-5.31,6.483-11.51,7.598-18.23h65.737
	C294.458,272.874,288.543,281.459,279.947,287.05z"/>
<path d="M462.771,113.503h-78.898c-4.853,0-8.788,3.935-8.788,8.788s3.935,8.788,8.788,8.788h78.898
	c4.853,0,8.788-3.935,8.788-8.788S467.624,113.503,462.771,113.503z"/>
<path d="M383.873,199.041h78.898c4.853,0,8.788-3.935,8.788-8.788s-3.935-8.788-8.788-8.788h-78.898
	c-4.853,0-8.788,3.935-8.788,8.788S379.02,199.041,383.873,199.041z"/>
<path d="M462.771,147.484h-10.936c-4.853,0-8.788,3.935-8.788,8.788c0,4.853,3.935,8.788,8.788,8.788h10.936
	c4.853,0,8.788-3.935,8.788-8.788C471.559,151.418,467.624,147.484,462.771,147.484z"/>
<path d="M383.873,165.06h38.668c4.853,0,8.788-3.935,8.788-8.788c0-4.853-3.935-8.788-8.788-8.788h-38.668
	c-4.853,0-8.788,3.935-8.788,8.788C375.085,161.125,379.02,165.06,383.873,165.06z"/>
</svg>