<?xml version="1.0" encoding="iso-8859-1"?>
<!-- Uploaded to: SVG Repo, www.svgrepo.com, Generator: SVG Repo Mixer Tools -->
<svg version="1.1" id="Layer_1" xmlns="http://www.w3.org/2000/svg" xmlns:xlink="http://www.w3.org/1999/xlink" 
	 viewBox="0 0 512.001 512.001" xml:space="preserve">
<path style="fill:#536B7C;" d="M383.469,294.188c0,4.59-1.858,8.754-4.881,11.765c-3.011,3.011-7.164,4.881-11.765,4.881H144.932
	c-9.19,0-16.646-7.455-16.646-16.646c0-1.869,0.146-3.716,0.425-5.508c1.187-7.556,4.758-14.317,9.918-19.478
	c6.403-6.403,15.235-10.355,24.997-10.355H348.14c17.642,0,32.262,12.94,34.904,29.833
	C383.323,290.471,383.469,292.318,383.469,294.188z"/>
<g>
	<path style="fill:#CFDCE5;" d="M350.653,461.173H161.106l0,0c0-21.053,17.067-38.118,38.118-38.118h113.309
		C333.586,423.054,350.653,440.121,350.653,461.173L350.653,461.173z"/>
	<rect x="242.802" y="310.84" style="fill:#CFDCE5;" width="26.145" height="112.222"/>
</g>
<rect x="242.802" y="310.84" style="fill:#BAC6CC;" width="26.145" height="36.586"/>
<rect x="235.963" y="211.593" style="fill:#CFDCE5;" width="39.831" height="47.262"/>
<g>
	<circle style="fill:#415E72;" cx="190.66" cy="482.391" r="21.217"/>
	<circle style="fill:#415E72;" cx="321.106" cy="482.391" r="21.217"/>
</g>
<path style="fill:#536B7C;" d="M265.331,8.393h-18.903c-53.503,0-96.876,43.373-96.876,96.876v64.267
	c0,23.229,18.831,42.06,42.06,42.06h128.534c23.229,0,42.06-18.831,42.06-42.06v-64.267C362.206,51.766,318.833,8.393,265.331,8.393
	z"/>
<path style="fill:#415E72;" d="M176.419,169.536v-64.267c0-52.167,41.239-94.684,92.894-96.775
	c-1.322-0.054-2.646-0.101-3.982-0.101h-18.903c-53.503,0-96.876,43.373-96.876,96.876v64.267c0,23.229,18.831,42.06,42.06,42.06
	h26.866C195.249,211.596,176.419,192.765,176.419,169.536z"/>
<path style="fill:#CFDCE5;" d="M108.771,188.974H95.719c-8.233,0-14.908,6.675-14.908,14.908v13.905h42.869v-13.905
	C123.679,195.648,117.004,188.974,108.771,188.974z"/>
<path style="fill:#415E72;" d="M383.469,294.188c0,4.59-1.858,8.754-4.881,11.765c-3.011,3.011-7.164,4.881-11.765,4.881H144.932
	c-9.19,0-16.646-7.455-16.646-16.646c0-1.869,0.146-3.716,0.425-5.508h254.332C383.323,290.471,383.469,292.318,383.469,294.188z"/>
<path style="fill:#CFDCE5;" d="M402.988,188.974h13.052c8.233,0,14.908,6.675,14.908,14.908v13.905H388.08v-13.905
	C388.079,195.648,394.753,188.974,402.988,188.974z"/>
<rect x="235.963" y="211.593" style="fill:#BAC6CC;" width="39.831" height="23.631"/>
<circle cx="291.262" cy="142.032" r="8.396"/>
<circle cx="220.739" cy="142.032" r="8.396"/>
<circle cx="291.262" cy="81.583" r="8.396"/>
<circle cx="220.739" cy="81.583" r="8.396"/>
<path d="M416.161,180.574h-13.052c-12.872,0-23.306,10.434-23.306,23.306v13.903c0,4.646,3.761,8.396,8.396,8.396h12.616v62.083
	c0,6.37-4.22,11.765-10.019,13.556c0.772-2.407,1.198-4.97,1.198-7.623c0-24.123-19.623-43.736-43.736-43.736h-63.941v-30.471
	h35.956c27.863,0,50.452-22.589,50.452-50.452V105.27c0-19.947-5.48-39.011-15.917-55.68c-2.567-4.099-8.011-5.264-11.973-2.491l0,0
	c-3.649,2.553-4.684,7.522-2.317,11.295c8.798,14.02,13.416,30.077,13.416,46.876v64.266c0,18.59-15.071,33.661-33.661,33.661
	H191.74c-18.571,0-33.672-15.101-33.672-33.661V105.27c0-48.866,39.613-88.479,88.479-88.479h18.907
	c20.306,0,40.154,7.052,55.859,19.858c3.593,2.933,8.888,2.384,11.81-1.209c2.933-3.593,2.396-8.877-1.198-11.81
	C313.231,8.396,289.622,0,265.454,0h-18.907c-58.139,0-105.27,47.131-105.27,105.27v64.266c0,27.818,22.635,50.452,50.463,50.452
	h35.956v30.471h-63.952c-24.112,0-43.725,19.612-43.725,43.736c0,2.653,0.414,5.217,1.187,7.623
	c-5.787-1.791-10.008-7.187-10.008-13.556v-62.083h12.605c4.634,0,8.396-3.75,8.396-8.396V203.88
	c0-12.871-10.434-23.306-23.306-23.306H95.839c-12.872,0-23.306,10.434-23.306,23.306v13.903c0,4.646,3.761,8.396,8.396,8.396
	h13.478v62.083c0,17.082,13.892,30.963,30.963,30.963h135.315v95.431h-9.358v-81.155c0-4.268-3.066-8.073-7.301-8.609
	c-5.122-0.649-9.49,3.331-9.49,8.326v81.438h-35.183c-25.675,0-46.551,20.895-46.523,46.576c0.006,4.614,3.781,8.343,8.396,8.343
	h2.866c-2.372,4.913-3.428,10.602-2.69,16.561c1.676,13.527,12.694,24.31,26.254,25.704c17.727,1.822,32.743-12.085,32.743-29.447
	c0-4.59-1.052-8.944-2.922-12.817h77.061c-1.869,3.873-2.922,8.228-2.922,12.817c0,17.387,15.058,31.31,32.803,29.441
	c13.544-1.427,24.534-12.211,26.197-25.728c0.731-5.947-0.326-11.625-2.693-16.53h2.855c4.589,0,8.383-3.686,8.396-8.275
	c0.035-13.242-5.6-25.908-15.459-34.755c-3.448-3.09-8.754-2.81-11.855,0.638c-3.101,3.459-2.81,8.765,0.638,11.866
	c4.142,3.716,7.12,8.485,8.676,13.735H170.829c3.638-12.325,15.045-21.336,28.523-21.336h113.024c4.268,0,8.073-3.066,8.609-7.301
	c0.648-5.122-3.331-9.49-8.326-9.49h-35.183v-95.431h109.166c17.071,0,30.963-13.881,30.963-30.963V226.18h13.467
	c4.634,0,8.396-3.75,8.396-8.396v-13.903C439.468,191.008,429.033,180.574,416.161,180.574z M89.324,209.387v-5.508
	c0-3.593,2.922-6.515,6.515-6.515h13.052c3.593,0,6.515,2.922,6.515,6.515v5.508H89.324z M321.223,469.574
	c7.075,0,12.829,5.743,12.829,12.817s-5.754,12.817-12.829,12.817c-7.064,0-12.817-5.743-12.817-12.817
	C308.406,475.317,314.16,469.574,321.223,469.574z M190.777,469.574c7.075,0,12.829,5.743,12.829,12.817
	s-5.754,12.817-12.829,12.817c-7.064,0-12.817-5.743-12.817-12.817C177.96,475.317,183.714,469.574,190.777,469.574z
	 M244.487,219.988h23.038v30.471h-23.038V219.988z M366.952,302.434H145.06c-4.556,0-8.25-3.694-8.25-8.239
	c0-14.866,12.079-26.944,26.933-26.944h184.514c14.855,0,26.944,12.079,26.944,26.944
	C375.202,298.739,371.496,302.434,366.952,302.434z M422.676,209.387h-26.082v-5.508c0-3.593,2.922-6.515,6.515-6.515h13.052
	c3.593,0,6.515,2.922,6.515,6.515L422.676,209.387L422.676,209.387z"/>
</svg>