<?xml version="1.0" encoding="iso-8859-1"?>
<!-- Uploaded to: SVG Repo, www.svgrepo.com, Generator: SVG Repo Mixer Tools -->
<svg version="1.1" id="Layer_1" xmlns="http://www.w3.org/2000/svg" xmlns:xlink="http://www.w3.org/1999/xlink" 
	 viewBox="0 0 512 512" xml:space="preserve">
<path style="fill:#889EBD;" d="M95.926,219.982v80.037c0,13.26-10.75,24.011-24.011,24.011c-13.26,0-24.011-10.75-24.011-24.011
	v-88.041"/>
<rect x="39.9" y="396.068" style="fill:#AACD4C;" width="64.029" height="24.011"/>
<rect x="400.064" y="396.068" style="fill:#95C11F;" width="64.029" height="24.011"/>
<rect x="7.885" y="91.928" style="fill:#AACD4C;" width="496.23" height="40.014"/>
<rect x="239.988" y="91.928" style="fill:#95C11F;" width="264.127" height="40.014"/>
<g>
	<path style="fill:#1D1D1B;" d="M512,139.826V84.038H0v55.788h424.196v248.353h-32.014v39.781h79.799v-39.781h-32.015V139.826H512z
		 M456.211,412.189h-48.259v-8.241h48.259V412.189z M15.77,99.808h480.46v24.248H15.77V99.808z"/>
	<path style="fill:#1D1D1B;" d="M112.052,300.019c0,22.132-18.005,40.137-40.138,40.137s-40.138-18.005-40.138-40.137v-152.07
		h-15.77V300.02c0,28.149,20.917,51.495,48.023,55.34v32.82H32.014v39.781h79.799V388.18H79.799v-32.82
		c27.106-3.845,48.023-27.191,48.023-55.34V147.949h-15.77V300.019z M96.044,412.189H47.784v-8.241h48.259
		C96.044,403.948,96.044,412.189,96.044,412.189z"/>
	<path style="fill:#1D1D1B;" d="M40.018,195.971v104.048c0,17.587,14.309,31.896,31.896,31.896s31.896-14.309,31.896-31.896V195.971
		h-15.77v16.126H55.788v-16.126H40.018z M88.041,227.867v72.152c0,8.892-7.234,16.126-16.126,16.126s-16.126-7.234-16.126-16.126
		v-72.152H88.041z"/>
	<rect x="63.911" y="284.133" style="fill:#1D1D1B;" width="16.009" height="15.77"/>
</g>
</svg>