<?xml version="1.0" encoding="iso-8859-1"?>
<!-- Uploaded to: SVG Repo, www.svgrepo.com, Generator: SVG Repo Mixer Tools -->
<svg height="800px" width="800px" version="1.1" id="Layer_1" xmlns="http://www.w3.org/2000/svg" xmlns:xlink="http://www.w3.org/1999/xlink" 
	 viewBox="0 0 508 508" xml:space="preserve">
<path style="fill:#676767;" d="M400,6h-2H112C91.2,6,72,21.2,72,42v424c0,20.8,19.2,40,40,40h288c20.8,0,36-19.2,36-40V44v-2
	C436,21.2,420.8,6,400,6z"/>
<path style="fill:#7D8B95;" d="M258,434c62.8,0,114-51.2,114-114s-51.2-114-114-114s-114,51.2-114,114S195.2,434,258,434z M258,222
	c54,0,98,44,98,98s-44,98-98,98s-98-44-98-98S204,222,258,222z"/>
<g>
	<path style="fill:#E8E3E3;" d="M258,154c27.6,0,50-22.4,50-50s-22.4-50-50-50s-50,22.4-50,50S230.4,154,258,154z M258,70
		c18.8,0,34,15.2,34,34s-15.2,34-34,34s-34-15.2-34-34S239.2,70,258,70z"/>
	<path style="fill:#E8E3E3;" d="M258,414c52,0,94-42,94-94s-42-94-94-94s-94,42-94,94S206,414,258,414z M258,266
		c29.6,0,54,24.4,54,54s-24.4,54-54,54s-54-24.4-54-54S228.4,266,258,266z"/>
</g>
<path style="fill:#AEB1B4;" d="M258,370c27.6,0,50-22.4,50-50s-22.4-50-50-50s-50,22.4-50,50S230.4,370,258,370z"/>
<g>
	<path style="fill:#676767;" d="M258,134c16.4,0,30-13.6,30-30s-13.6-30-30-30s-30,13.6-30,30S241.6,134,258,134z"/>
	<circle style="fill:#676767;" cx="114" cy="40" r="6"/>
	<circle style="fill:#676767;" cx="402" cy="40" r="6"/>
	<circle style="fill:#676767;" cx="114" cy="464" r="6"/>
	<circle style="fill:#676767;" cx="402" cy="464" r="6"/>
</g>
<path d="M398,508L398,508H110c-25.6-0.4-44-17.6-44-40V44c0-24.4,19.6-44,44-44h288c24.4,0,44,19.6,44,44v424
	c0,11.6-4.4,22-12.8,29.2C421.2,504.4,410,508,398,508z M110,8C90,8,74,24,74,44v424c0,21.6,18.8,31.6,36,32h288l0,0
	c10,0,19.2-3.2,25.6-8.8c6.8-5.6,10-14,10-23.2V44c0-20-16-36-36-36H110z"/>
<path d="M258,440c-66,0-120-54-120-120s54-120,120-120s120,54,120,120S324,440,258,440z M258,208c-61.6,0-112,50.4-112,112
	s50.4,112,112,112s112-50.4,112-112S319.6,208,258,208z"/>
<path d="M258,160c-30.8,0-56-25.2-56-56s25.2-56,56-56s56,25.2,56,56S288.8,160,258,160z M258,56c-26.4,0-48,21.6-48,48
	s21.6,48,48,48s48-21.6,48-48S284.4,56,258,56z"/>
<path d="M258,420c-55.2,0-100-44.8-100-100s44.8-100,100-100s100,44.8,100,100S313.2,420,258,420z M258,228c-50.8,0-92,41.2-92,92
	s41.2,92,92,92s92-41.2,92-92S308.8,228,258,228z"/>
<path d="M258,376c-30.8,0-56-25.2-56-56s25.2-56,56-56s56,25.2,56,56S288.8,376,258,376z M258,272c-26.4,0-48,21.6-48,48
	s21.6,48,48,48s48-21.6,48-48S284.4,272,258,272z"/>
<path d="M258,140c-20,0-36-16-36-36s16-36,36-36s36,16,36,36S278,140,258,140z M258,76c-15.6,0-28,12.4-28,28s12.4,28,28,28
	s28-12.4,28-28S273.6,76,258,76z"/>
<path d="M114,52c-6.8,0-12-5.2-12-12s5.2-12,12-12s12,5.2,12,12S120.8,52,114,52z M114,36c-2.4,0-4,1.6-4,4s1.6,4,4,4s4-1.6,4-4
	S116.4,36,114,36z"/>
<path d="M402,52c-6.8,0-12-5.2-12-12s5.2-12,12-12s12,5.2,12,12S408.8,52,402,52z M402,36c-2.4,0-4,1.6-4,4s1.6,4,4,4s4-1.6,4-4
	S404.4,36,402,36z"/>
<path d="M114,476c-6.8,0-12-5.2-12-12s5.2-12,12-12s12,5.2,12,12S120.8,476,114,476z M114,460c-2.4,0-4,1.6-4,4s1.6,4,4,4s4-1.6,4-4
	S116.4,460,114,460z"/>
<path d="M402,476c-6.8,0-12-5.2-12-12s5.2-12,12-12s12,5.2,12,12S408.8,476,402,476z M402,460c-2.4,0-4,1.6-4,4s1.6,4,4,4s4-1.6,4-4
	S404.4,460,402,460z"/>
</svg>